# xmcd CD database file
#
# Track frame offsets:
#	150
#	17353
#	34173
#
# Disc length: 682 seconds
#
# Revision: 1
# Processed by: cddbd v1.5.2PL0 Copyright (c) Steve Scherf et al.
# Submitted via: CDex 1.70beta2
#
DISCID=1602a803
DTITLE=Berryz工房 - ジリリ キテル
DYEAR=2006
DGENRE=JPop
TTITLE0=ジリリ キテル
TTITLE1=図書室待機
TTITLE2=ジリリ キテル(Instrumental)
EXTD=YEAR: 2006
EXTT0=
EXTT1=
EXTT2=
PLAYORDER=
